<svg xmlns="http://www.w3.org/2000/svg" version="1.1" xmlns:xlink="http://www.w3.org/1999/xlink" xmlns:svgjs="http://svgjs.dev/svgjs" width="1000" height="750" viewBox="0 0 1000 750"><rect width="1000" height="750" fill="#333366"></rect><g transform="matrix(0.5191111111111111,0,0,0.5191111111111111,240.4444444444445,83)"><svg viewBox="0 0 320 360" data-background-color="#333366" preserveAspectRatio="xMidYMid meet" height="1125" width="1000" xmlns="http://www.w3.org/2000/svg" xmlns:xlink="http://www.w3.org/1999/xlink"><g id="tight-bounds" transform="matrix(1,0,0,1,0,0)"><svg viewBox="0 0 320 360" height="360" width="320"><g><svg></svg></g><g><svg viewBox="0 0 320 360" height="360" width="320"><g><path xmlns="http://www.w3.org/2000/svg" d="M20.961 227.22l3.726 4.658-1.863-6.056c-0.466-2.795-3.726 0.466-1.863 1.398M25.153 224.425c1.397 2.329 2.795 4.658 2.795 6.987 0 3.261 2.795 4.658 5.123 5.589-3.261-3.726-5.124-13.974-7.918-12.576M204.017 26.929c7.918 0 15.371-0.932 23.756 0.931 20.495 5.124 37.729 15.371 49.374 29.811l32.606 52.169c1.397 13.042 4.192 27.482 3.726 43.319 3.261 0 2.795-4.658 6.521-5.59-3.726 9.316-5.59 20.961-6.521 34.469-2.329-7.453 0-18.632 0.466-24.687-3.261 5.124-5.124 1.397-5.124-0.932 0.466-3.726-1.397-3.261-2.795-4.658-5.124-4.658-8.384-9.782-12.11-17.7 2.329-6.055 2.795-14.905-4.658-19.563-2.329-1.397-5.124-3.726-6.521-7.453-1.863-5.124-5.124-11.179-4.193-19.097 0.466-2.329-6.987 5.124-11.179 1.863-18.166-12.576-36.332-27.016-58.224-39.127-11.645 0-20.029-4.192-24.221-9.316-3.726-4.658-0.932-10.713 4.658-11.179 3.261 0 6.987-0.932 9.782 0.932 0.466-1.863 2.329-4.192 4.657-4.192M157.904 16.215l0.932 0.466c4.658 0.932 6.987 7.453 12.11 5.124 0 3.261 0.466 6.521-0.466 8.85-1.397 3.726-5.59 3.726-8.85 3.726-31.208-1.863-49.374 11.179-68.471 22.358-5.124 3.261-10.713 5.59-14.906 9.782-20.029 18.632-41.921 35.866-47.045 70.335l-4.192 38.195c-0.466 4.192-5.124 8.384-4.192 13.508l3.26 22.824c-3.261-3.261-5.124 0.932-4.192 2.795 0.466 1.397 2.329 6.055 5.124 1.863 3.726 6.987 7.453 20.495 12.576 26.55 15.837 18.632 36.332 35.4 53.101 52.169 4.192-0.932 7.453-0.932 8.384-3.727 1.397 2.795-1.397 5.59-3.726 6.056 7.453 4.658 15.837 8.85 27.016 9.781 14.44 0.932 27.948 3.261 40.524 6.522 6.521-1.863 13.042-2.795 20.029-3.261 2.329 0 3.726-3.726 6.521-4.658l0.466-4.658c2.795 4.192 2.329-1.397 0.466-4.192 3.261 2.795 4.192 5.124 5.589 6.987 0-1.397 3.726-6.521 3.727-0.466l0.931-6.055c1.397-0.932 1.863 5.124 3.261 0.931 1.397-4.192 4.192-0.932 6.987-2.329-0.932 1.863-0.466 5.59 2.794 3.261l3.727-3.261c2.329 5.59 6.055 3.261 7.918 2.329 20.495-13.042 40.99-28.413 60.553-43.784l-0.466 6.055 2.329-7.453c2.329 2.329 4.192 0.466 5.124-0.931 2.795-4.658 6.521-9.316 12.577-13.508-7.453 20.029-16.303 35.866-27.482 48.908l-4.658 5.59c0 3.261-0.932 7.453-4.658 7.918-1.863 0.466-5.59-0.932-8.384 1.863-1.397 1.863 3.261 5.59-0.466 2.795-3.261-2.329-6.521 0-10.248 0.932-2.795 0.932 1.863 3.726 2.795 5.589 0.932 1.863 1.863 3.726 1.398 6.056l-5.124-5.59c-6.055 3.261-9.782 9.316-14.906 13.974-2.329 1.863-1.397 5.124-1.397 7.918-3.261 0-6.987-0.932-8.85 0.932-1.397 1.863-0.932 4.658-0.932 7.453-4.658-0.466-5.124-7.453-9.315-6.056-4.192 0.932-8.85 1.397-12.577 3.727 2.795 5.59-4.658 2.329-3.726 3.26-6.987-4.192-13.042-7.453-20.495-4.658-15.837-5.124-35.4-2.795-49.84-0.931 0-2.329 0.466-4.658-0.466-5.124-0.932 2.329-3.726 1.397-3.26 1.397-8.85-6.055-17.7-9.782-27.016-14.905-8.384 0.932-16.303-3.261-18.632-5.59-6.521-6.055-13.974-2.795-20.029-4.192-13.042-3.261-17.7-16.769-19.098-26.084-0.932-4.658-4.658-6.521-6.055-6.056-6.055-19.563-15.371-37.263-22.824-55.429-1.863-4.658-1.397-9.316-1.397-14.44 2.329 0.932 4.658 0.466 4.192-2.794-2.329-15.371-7.918-27.016-13.974-38.195 3.261-15.837 3.726-34.469 11.179-48.443 6.521-12.576 18.632-19.098 27.016-29.811 2.795-3.726 2.795-8.85 5.59-12.11 9.316-9.316 18.632-19.098 28.879-27.482 4.658-3.726 10.247 0 17.234-1.397 2.329-8.384 11.645-15.837 20.495-13.508 3.726 0.932 11.179-8.85 13.508-9.782 3.726-1.397 1.863 3.726 1.863 6.987 8.85-6.987 20.961-10.713 32.14-14.906" fill="#ffff33" fill-rule="nonzero" stroke="none" stroke-width="1" stroke-linecap="butt" stroke-linejoin="miter" stroke-miterlimit="10" stroke-dasharray="" stroke-dashoffset="0" font-family="none" font-weight="none" font-size="none" text-anchor="none" style="mix-blend-mode: normal" data-fill-palette-color="tertiary"></path></g><g transform="matrix(1,0,0,1,64.67898365532736,90)"><svg viewBox="0 0 190.64203268934529 180" height="180" width="190.64203268934529"><g><svg viewBox="0 0 190.64203268934529 180" height="180" width="190.64203268934529"><g><svg viewBox="0 0 192 181.28216276583748" height="180" width="190.64203268934529"><g transform="matrix(1,0,0,1,0,123.83670967386949)"><svg viewBox="0 0 192 57.44545309196798" height="57.44545309196798" width="192"><g id="textblocktransform"><svg viewBox="0 0 192 57.44545309196798" height="57.44545309196798" width="192" id="textblock"><g><svg viewBox="0 0 192 32.56685270565397" height="32.56685270565397" width="192"><g transform="matrix(1,0,0,1,0,0)"><svg width="192" viewBox="-0.4000000059604645 -34.95000076293945 206.0399932861328 34.95000076293945" height="32.56685270565397" data-palette-color="#ffff33"><path d="M0-2.15L12.6-2.15 12.6-13.8-0.4-34.95 6.05-34.95 15.6-19.05 25.15-34.95 31.6-34.95 18.6-13.8 18.6-2.15 31.2-2.15 31.2 0 0 0 0-2.15ZM59.2-2.15L69.6-2.15 69.6 0 31.2 0 31.2-2.15 41.55-2.15Q35.6-6.3 35.6-15.3L35.6-15.3 35.6-34.95 41.5-34.95 41.5-15.55Q41.5-10.75 43.9-7.95 46.3-5.15 50.4-5.15 54.5-5.15 56.9-7.95 59.3-10.75 59.3-15.55L59.3-15.55 59.3-34.95 65.2-34.95 65.2-15.3Q65.2-6.25 59.2-2.15L59.2-2.15ZM91.25-2.15L104.6-2.15 104.6 0 69.6 0 69.6-2.15 82.9-2.15 69.75-34.95 76.35-34.95 87.1-8.85 97.85-34.95 104.45-34.95 91.25-2.15ZM137.39-2.15L142.24-2.15 142.24 0 131.44 0 123.09-11.75 115.34-11.75 115.34 0 104.59 0 104.59-2.15 109.44-2.15 109.44-34.95 122.44-34.95Q130.44-34.95 133.89-32.25 137.34-29.55 137.34-23.6L137.34-23.6Q137.34-14.95 129.79-12.7L129.79-12.7 137.39-2.15ZM122.69-17.1Q127.69-17.1 129.49-18.65 131.29-20.2 131.29-23.63 131.29-27.05 129.44-28.33 127.59-29.6 122.84-29.6L122.84-29.6 115.34-29.6 115.34-17.1 122.69-17.1ZM177.14-2.15L182.94-2.15 182.94 0 171.79 0 168.29-7.95 150.79-7.95 147.29 0 136.14 0 136.14-2.15 141.94-2.15 156.39-34.95 162.69-34.95 177.14-2.15ZM153.19-13.4L165.89-13.4 159.54-27.8 153.19-13.4ZM195.94-2.15L205.64-2.15 205.64 0 178.09 0 178.09-2.15 183.59-2.15Q181.39-3.15 179.64-5L179.64-5 182.99-9.65Q186.39-6.4 189.64-6.4L189.64-6.4Q191.94-6.4 193.56-7.95 195.19-9.5 195.19-12.6L195.19-12.6 195.19-29.65 184.09-29.65 184.09-34.95 201.09-34.95 201.09-12.9Q201.09-5.1 195.94-2.15L195.94-2.15Z" opacity="1" transform="matrix(1,0,0,1,0,0)" fill="#ffff33" class="undefined-text-0" data-fill-palette-color="primary" id="text-0"></path></svg></g></svg></g><g transform="matrix(1,0,0,1,0,37.31913811987382)"><svg viewBox="0 0 192 20.126314972094153" height="20.126314972094153" width="192"><g transform="matrix(1,0,0,1,0,0)"><svg width="192" viewBox="1.4600000381469727 -40.15999984741211 389.4300231933594 40.81999969482422" height="20.126314972094153" data-palette-color="#ffffff"><path d="M35.57-30.18L35.57-4.42Q35.57-1.12 40.14-0.98L40.14-0.98Q40.33-0.98 40.33-0.78L40.33-0.78 40.33-0.2Q40.33 0 40.14 0L40.14 0 24.61 0Q24.41 0 24.41-0.2L24.41-0.2 24.41-0.78Q24.41-0.98 25.63-0.98 26.86-0.98 28.42-1.51L28.42-1.51Q30.81-2.29 30.81-4.15L30.81-4.15 30.81-15.8Q30.81-16.04 30.74-16.11 30.66-16.19 30.42-16.19L30.42-16.19 11.18-16.19Q10.94-16.19 10.86-16.11 10.79-16.04 10.79-15.8L10.79-15.8 10.79-3.91Q10.79-0.98 15.11-0.98L15.11-0.98Q15.31-0.98 15.31-0.78L15.31-0.78 15.31-0.2Q15.31 0 15.14 0L15.14 0 1.66 0Q1.46 0 1.46-0.2L1.46-0.2 1.46-0.78Q1.46-0.98 1.95-0.98L1.95-0.98Q6.03-0.98 6.03-4.47L6.03-4.47 6.03-30.52Q6.03-33.37 2.64-33.54L2.64-33.54Q2.12-33.57 2.12-33.76L2.12-33.76 2.12-34.23Q2.12-34.42 2.29-34.42L2.29-34.42 14.55-34.42Q14.75-34.42 14.75-34.23L14.75-34.23 14.75-33.76Q14.75-33.62 14.28-33.62L14.28-33.62Q10.79-33.62 10.79-30.18L10.79-30.18 10.79-18.9Q10.79-18.65 10.86-18.58 10.94-18.51 11.18-18.51L11.18-18.51 30.42-18.51Q30.66-18.51 30.74-18.58 30.81-18.65 30.81-18.9L30.81-18.9 30.81-30.57Q30.76-30.79 30.75-30.97 30.74-31.15 30.66-31.54L30.66-31.54Q30.49-32.37 28.93-32.9 27.37-33.42 25.39-33.57L25.39-33.57Q25.2-33.57 25.2-33.76L25.2-33.76 25.2-34.23Q25.2-34.42 25.37-34.42L25.37-34.42 39.45-34.42Q39.65-34.42 39.65-34.23L39.65-34.23 39.65-33.76Q39.65-33.62 39.18-33.62L39.18-33.62Q35.57-33.62 35.57-30.18L35.57-30.18ZM69.46-4.03Q69.46-3.39 70.05-3.02 70.65-2.64 71.43-2.64 72.21-2.64 72.74-3.04 73.26-3.44 73.46-3.44 73.65-3.44 73.65-2.92 73.65-2.39 73.17-2.03L73.17-2.03Q69.5 0.66 68.21 0.66L68.21 0.66Q66.65 0.66 65.67-2.59L65.67-2.59Q65.6-2.83 65.55-2.81L65.55-2.81Q62.52-0.54 61.74-0.07L61.74-0.07Q59.74 1.07 57.72 0.29 55.71-0.49 54.81-2.29L54.81-2.29Q54.37-3.22 54.37-4.27L54.37-4.27Q54.37-6.35 55.91-7.57 57.44-8.79 61.76-9.91L61.76-9.91Q63.23-10.3 64.38-10.91 65.52-11.52 65.59-11.69 65.65-11.87 65.65-12.01L65.65-12.01 65.65-16.7Q65.65-19.46 63.5-20.58L63.5-20.58Q62.79-20.95 61.8-20.95 60.81-20.95 59.8-20.17 58.79-19.38 58.79-17.94L58.79-17.94 58.91-16.99Q58.76-16.7 57.15-16.02 55.54-15.33 55.3-15.28L55.3-15.28Q54.9-15.28 54.9-16.22 54.9-17.16 55.47-18.31 56.03-19.46 57.05-20.41L57.05-20.41Q59.45-22.63 62.52-22.63 65.6-22.63 67.53-20.94 69.46-19.24 69.46-16.89L69.46-16.89 69.46-4.03ZM58.2-4.74Q58.2-3.56 59.1-2.7 60.01-1.83 61.17-1.83 62.33-1.83 63.99-2.82 65.65-3.81 65.65-4.86L65.65-4.86 65.65-9.81Q65.65-10.08 65.52-10.08 65.4-10.08 65.35-10.06L65.35-10.06 59.69-7.42Q58.81-6.79 58.51-6.35 58.2-5.91 58.2-4.74ZM101.68-17.5L101.68-17.5Q101.39-17.55 100.82-17.82L100.82-17.82Q98.8-18.75 97.65-18.75 96.5-18.75 95.25-17.32 93.99-15.89 93.99-14.75L93.99-14.75 93.99-3.71Q93.99-1.88 96.11-1.27L96.11-1.27Q97.04-1.03 97.85-0.92 98.65-0.81 98.88-0.71 99.12-0.61 99.12-0.33 99.12-0.05 98.87 0L98.87 0 86.64 0Q86.4-0.05 86.4-0.34L86.4-0.34Q86.4-0.78 87.54-0.93L87.54-0.93Q90.18-1.32 90.18-3.71L90.18-3.71 90.18-16.63Q90.18-17.65 89.06-18.04L89.06-18.04Q88.57-18.21 88.01-18.32 87.45-18.43 87.12-18.53 86.79-18.63 86.7-18.71 86.62-18.8 86.62-19.08 86.62-19.36 86.98-19.56L86.98-19.56 93.21-22.49Q93.5-22.63 93.57-22.63L93.57-22.63Q93.99-22.63 93.99-22.05L93.99-22.05 93.99-18.09Q93.99-17.8 94.14-17.8L94.14-17.8Q94.33-17.8 95.14-18.95L95.14-18.95Q97.46-22.19 98.97-22.19L98.97-22.19Q99.82-22.19 101.59-21.51 103.36-20.83 103.36-20.36L103.36-20.36Q103.36-19.8 102.8-18.65 102.24-17.5 101.68-17.5ZM131-21.62Q132.07-21.24 132.32-21.24 132.56-21.24 132.62-21.25 132.68-21.26 132.78-21.56L132.78-21.56 132.78-34.16Q132.78-35.18 131.66-35.57L131.66-35.57Q131.17-35.74 130.61-35.85 130.05-35.96 129.72-36.06 129.39-36.16 129.3-36.24 129.22-36.33 129.22-36.61 129.22-36.89 129.58-37.08L129.58-37.08 135.81-40.01Q136.1-40.16 136.17-40.16L136.17-40.16Q136.59-40.16 136.59-39.58L136.59-39.58 136.59-4.81Q136.71-3.74 137.2-3.27 137.69-2.81 138.79-2.81L138.79-2.81 140.2-2.91Q140.35-2.91 140.35-2.62 140.35-2.34 139.98-2.17L139.98-2.17 133.49 0.51Q133.2 0.66 132.99 0.66 132.78 0.66 132.78 0.05L132.78 0.05 132.78-2.17Q132.78-2.42 132.66-2.42L132.66-2.42Q132.49-2.42 130.63-1.32L130.63-1.32Q124.94 2.05 121.04-0.32L121.04-0.32Q117.91-2.22 116.81-6.35L116.81-6.35Q116.3-8.28 116.3-10.44 116.3-12.6 117.19-14.73 118.08-16.87 119.65-18.48L119.65-18.48Q123.09-22 127.95-22L127.95-22Q129.92-22 131-21.62ZM119.99-11.15Q119.99-7.45 122.04-4.68 124.09-1.9 127.75-1.9L127.75-1.9Q129.36-1.9 131.07-2.7 132.78-3.49 132.78-3.91L132.78-3.91 132.78-16.5Q132.78-16.97 132.15-17.6L132.15-17.6Q130.19-20.29 126.96-20.29 123.72-20.29 121.85-17.57 119.99-14.84 119.99-11.15ZM190.98-18.77L183.63-18.77Q183.48-18.77 183.48-18.55L183.48-18.55 183.48-5.08Q183.48-3.61 184.13-2.78 184.78-1.95 185.78-1.95 186.78-1.95 187.52-2.28 188.27-2.61 188.82-3 189.37-3.39 189.81-3.72 190.25-4.05 190.59-4.05 190.93-4.05 190.93-3.88L190.93-3.88Q190.93-3.3 190.81-3.13L190.81-3.13Q187.88 0.66 185.16 0.66 182.43 0.66 181.05-1.06 179.67-2.78 179.67-5.18L179.67-5.18 179.67-18.77 177.84-18.77Q177.16-18.77 177.12-19.21 177.09-19.65 177.26-19.78L177.26-19.78Q178.55-20.61 180.82-22.75L180.82-22.75Q181.07-23.02 181.48-23.56 181.9-24.1 182.69-25.02 183.48-25.95 183.9-25.95 184.31-25.95 184.31-25.61L184.31-25.61Q184.31-25.56 183.48-22.41L183.48-22.41Q183.48-21.97 183.87-21.95L183.87-21.95 190.1-21.95Q191.17-21.95 191.17-18.92L191.17-18.92Q191.17-18.77 190.98-18.77L190.98-18.77ZM204.48-10.97Q204.48-15.77 207.88-19.23 211.29-22.68 216.05-22.68 220.81-22.68 224.33-19.32 227.84-15.97 227.84-11.04 227.84-6.1 224.51-2.72 221.18 0.66 216.15 0.66 211.12 0.66 207.8-2.76 204.48-6.18 204.48-10.97ZM210.56-4.69L210.56-4.69Q212.95-0.66 217.07-0.66L217.07-0.66Q220.27-0.66 221.97-3.22 223.67-5.79 223.67-9.52 223.67-13.26 221.29-17.19 218.91-21.12 214.88-21.12L214.88-21.12Q211.92-21.12 210.23-18.57 208.53-16.02 208.53-12.1 208.53-8.18 210.56-4.69ZM282.89 0L265.26 0Q265.07 0 265.07-0.2L265.07-0.2 265.07-0.78Q265.07-0.98 265.41-0.98L265.41-0.98Q266.56-0.98 267.95-1.22L267.95-1.22Q272.42-1.98 272.42-4.3L272.42-4.3 272.42-30.05Q272.17-33.18 269.56-33.45L269.56-33.45Q268.78-33.54 267.83-33.54L267.83-33.54 266.43-33.54Q266.24-33.54 266.24-33.74L266.24-33.74 266.24-34.35Q266.24-34.55 266.43-34.55L266.43-34.55 267.51-34.57 271.71-34.59 280.4-34.86Q294.36-34.86 294.36-26.61L294.36-26.61Q294.36-23.12 290.75-20.8L290.75-20.8Q290.19-20.43 289.79-20.26 289.38-20.09 289.33-20.07L289.33-20.07Q292.56-18.26 294.4-16.02 296.24-13.77 296.24-10.64L296.24-10.64Q296.24-3.98 289.94-1.37L289.94-1.37Q286.7 0 282.89 0L282.89 0ZM281.5-19.04L277.62-19.04Q277.3-19.04 277.3-18.77L277.3-18.77 277.3-5.4Q277.3-3.66 278.92-2.61 280.55-1.56 282.43-1.56L282.43-1.56Q286.04-1.56 288.58-4.14 291.12-6.71 291.12-10.49 291.12-14.26 288.39-16.65 285.67-19.04 281.5-19.04L281.5-19.04ZM277.25-32.2L277.25-21.02Q277.25-20.56 277.81-20.56L277.81-20.56 283.82-20.56Q286.16-20.56 287.76-22.29 289.36-24.02 289.36-26.17L289.36-26.17Q289.36-30 287.19-31.73 285.01-33.45 281.4-33.45L281.4-33.45Q280.3-33.37 279.87-33.37 279.45-33.37 278.98-33.39 278.52-33.4 278.06-33.33 277.59-33.25 277.42-33.01 277.25-32.76 277.25-32.2L277.25-32.2ZM329.47-12.87L315.31-12.87Q314.89-12.87 314.89-11.08L314.89-11.08Q314.89-7.3 317.14-4.74 319.39-2.17 322.72-2.17 326.05-2.17 329.13-5.05L329.13-5.05Q329.18-5.1 329.25-5.1L329.25-5.1 329.37-5.1Q329.52-5.1 329.65-4.87 329.79-4.64 329.91-4.57L329.91-4.57Q327.08-1.12 323.24 0.2L323.24 0.2Q321.92 0.66 320.26 0.66 318.6 0.66 316.9-0.26 315.19-1.17 313.97-2.66L313.97-2.66Q311.38-5.76 311.38-10.39 311.38-15.01 314.2-18.82 317.02-22.63 321.95-22.63L321.95-22.63Q325.49-22.63 327.74-19.47 329.98-16.31 329.98-13.92L329.98-13.92Q329.98-12.87 329.47-12.87L329.47-12.87ZM315.58-15.5L315.58-15.21Q315.58-14.75 316.02-14.75L316.02-14.75 325.22-14.75Q325.86-14.75 325.86-15.5L325.86-15.5Q325.86-17.26 324.28-19.1 322.71-20.95 320.83-20.95L320.83-20.95Q319-20.95 317.49-19.29 315.99-17.63 315.58-15.5L315.58-15.5ZM360.03-4.03Q360.03-3.39 360.63-3.02 361.23-2.64 362.01-2.64 362.79-2.64 363.32-3.04 363.84-3.44 364.04-3.44 364.23-3.44 364.23-2.92 364.23-2.39 363.74-2.03L363.74-2.03Q360.08 0.66 358.79 0.66L358.79 0.66Q357.22 0.66 356.25-2.59L356.25-2.59Q356.18-2.83 356.13-2.81L356.13-2.81Q353.1-0.54 352.32-0.07L352.32-0.07Q350.32 1.07 348.3 0.29 346.29-0.49 345.38-2.29L345.38-2.29Q344.94-3.22 344.94-4.27L344.94-4.27Q344.94-6.35 346.48-7.57 348.02-8.79 352.34-9.91L352.34-9.91Q353.81-10.3 354.95-10.91 356.1-11.52 356.16-11.69 356.22-11.87 356.22-12.01L356.22-12.01 356.22-16.7Q356.22-19.46 354.08-20.58L354.08-20.58Q353.37-20.95 352.38-20.95 351.39-20.95 350.38-20.17 349.36-19.38 349.36-17.94L349.36-17.94 349.49-16.99Q349.34-16.7 347.73-16.02 346.12-15.33 345.87-15.28L345.87-15.28Q345.48-15.28 345.48-16.22 345.48-17.16 346.04-18.31 346.6-19.46 347.63-20.41L347.63-20.41Q350.02-22.63 353.1-22.63 356.18-22.63 358.1-20.94 360.03-19.24 360.03-16.89L360.03-16.89 360.03-4.03ZM348.78-4.74Q348.78-3.56 349.68-2.7 350.58-1.83 351.74-1.83 352.9-1.83 354.56-2.82 356.22-3.81 356.22-4.86L356.22-4.86 356.22-9.81Q356.22-10.08 356.1-10.08 355.98-10.08 355.93-10.06L355.93-10.06 350.27-7.42Q349.39-6.79 349.08-6.35 348.78-5.91 348.78-4.74ZM390.69-18.77L383.35-18.77Q383.2-18.77 383.2-18.55L383.2-18.55 383.2-5.08Q383.2-3.61 383.85-2.78 384.49-1.95 385.49-1.95 386.49-1.95 387.24-2.28 387.98-2.61 388.53-3 389.08-3.39 389.52-3.72 389.96-4.05 390.3-4.05 390.65-4.05 390.65-3.88L390.65-3.88Q390.65-3.3 390.52-3.13L390.52-3.13Q387.59 0.66 384.87 0.66 382.15 0.66 380.77-1.06 379.39-2.78 379.39-5.18L379.39-5.18 379.39-18.77 377.56-18.77Q376.88-18.77 376.84-19.21 376.8-19.65 376.97-19.78L376.97-19.78Q378.27-20.61 380.54-22.75L380.54-22.75Q380.78-23.02 381.2-23.56 381.61-24.1 382.41-25.02 383.2-25.95 383.61-25.95 384.03-25.95 384.03-25.61L384.03-25.61Q384.03-25.56 383.2-22.41L383.2-22.41Q383.2-21.97 383.59-21.95L383.59-21.95 389.82-21.95Q390.89-21.95 390.89-18.92L390.89-18.92Q390.89-18.77 390.69-18.77L390.69-18.77Z" opacity="1" transform="matrix(1,0,0,1,0,0)" fill="#ffffff" class="undefined-text-1" data-fill-palette-color="secondary" id="text-1"></path></svg></g></svg></g></svg></g></svg></g><g transform="matrix(1,0,0,1,27.95175756591449,0)"><svg viewBox="0 0 136.09648486817102 119.08442425964964" height="119.08442425964964" width="136.09648486817102"><g><svg xmlns="http://www.w3.org/2000/svg" xmlns:xlink="http://www.w3.org/1999/xlink" version="1.1" x="0" y="0" viewBox="0 31.900009155273438 512 448" style="enable-background:new 0 0 512 512;" xml:space="preserve" height="119.08442425964964" width="136.09648486817102" class="icon-icon-0" data-fill-palette-color="accent" id="icon-0"><g fill="#ffffff" data-fill-palette-color="accent"><path d="M160 181.3c41.2 0 74.7-33.5 74.7-74.7 0-41.2-33.5-74.7-74.7-74.7s-74.7 33.5-74.7 74.7C85.3 147.8 118.8 181.3 160 181.3z" fill="#ffffff" data-fill-palette-color="accent"></path><path d="M294 217.4c-11.1-10-24.4-17.7-39.1-22.1l-17.2-5-73.6 73.6-73.7-73.6-17.2 5C29.5 208.4 0 248 0 293.7V384h228.7c-3-12-4.7-24.4-4.7-37.3C224 292.7 251.9 245.1 294 217.4z" fill="#ffffff" data-fill-palette-color="accent"></path><path d="M378.7 213.3c-73.5 0-133.3 59.7-133.3 133.3 0 73.5 59.8 133.3 133.3 133.3S512 420.1 512 346.7C512 273.1 452.1 213.3 378.7 213.3zM343.9 366.2l-15.1 15.1-39.9-39.9 39.9-39.9 15.1 15.1-24.8 24.8L343.9 366.2zM370 401.7l-20-7.3 37.4-103 20 7.3L370 401.7zM428.5 381.3l-15.1-15.1 24.8-24.8-24.8-24.8 15.1-15.1 39.9 39.9L428.5 381.3z" fill="#ffffff" data-fill-palette-color="accent"></path></g></svg></g></svg></g><g></g></svg></g></svg></g></svg></g></svg></g><defs></defs></svg><rect width="320" height="360" fill="none" stroke="none" visibility="hidden"></rect></g></svg></g></svg>